<svg width="24" height="24" viewBox="0 0 24 24" fill="none" xmlns="http://www.w3.org/2000/svg">
<path d="M21 9.8C21 16.4 12 23 12 23C12 23 2.99995 16.4 2.99995 9.8C2.99995 7.46609 3.94817 5.22778 5.63599 3.57746C7.32382 1.92714 9.61301 1 12 1C14.3869 1 16.6761 1.92714 18.3639 3.57746C20.0517 5.22778 21 7.46609 21 9.8Z" stroke="#83B81A" stroke-width="2" stroke-linecap="round" stroke-linejoin="round"/>
<path d="M12 13C13.6569 13 15 11.6569 15 10C15 8.34315 13.6569 7 12 7C10.3431 7 9 8.34315 9 10C9 11.6569 10.3431 13 12 13Z" stroke="#83B81A" stroke-width="2" stroke-linecap="round" stroke-linejoin="round"/>
</svg>
